<?xml version="1.0" standalone="no"?>
<!DOCTYPE svg PUBLIC "-//W3C//DTD SVG 20010904//EN"
 "http://www.w3.org/TR/2001/REC-SVG-20010904/DTD/svg10.dtd">
<svg version="1.0" xmlns="http://www.w3.org/2000/svg"
 width="700.000000pt" height="700.000000pt" viewBox="0 0 700.000000 700.000000"
 preserveAspectRatio="xMidYMid meet">
<metadata>
Created by potrace 1.14, written by Peter Selinger 2001-2017
</metadata>
<g transform="translate(0.000000,700.000000) scale(0.100000,-0.100000)"
fill="#000000" stroke="none">
<path d="M2145 6440 c-720 -270 -1320 -496 -1332 -502 -35 -17 -51 -65 -67
-194 -35 -275 -45 -651 -26 -979 69 -1174 432 -2265 1043 -3137 363 -517 842
-999 1372 -1379 233 -167 294 -203 346 -203 26 0 56 7 67 15 10 8 73 50 138
95 1242 847 2044 2015 2394 3490 64 270 114 577 147 914 21 218 25 879 5 1064
-23 222 -33 266 -61 298 -22 24 -229 104 -1336 515 -720 267 -1326 487 -1345
489 -28 3 -315 -101 -1345 -486z m2540 -222 c644 -240 1193 -444 1222 -454 60
-21 56 -7 74 -259 15 -216 6 -773 -16 -985 -181 -1782 -994 -3182 -2407 -4149
l-77 -53 -77 53 c-477 322 -975 793 -1315 1244 -619 822 -985 1796 -1094 2915
-32 324 -30 978 4 1175 l6 40 1230 457 c738 275 1240 457 1255 455 14 -2 552
-200 1195 -439z"/>
<path d="M3045 6030 c-264 -99 -712 -266 -995 -372 -572 -213 -570 -212 -570
-295 0 -81 48 -133 121 -133 23 0 1706 617 1952 715 16 7 17 -24 17 -569 l0
-576 -484 0 c-412 0 -485 -2 -496 -15 -6 -8 -120 -299 -253 -647 -237 -625
-240 -634 -238 -703 9 -313 248 -555 548 -555 165 0 286 50 398 164 107 109
165 246 165 394 0 58 -17 106 -215 622 -118 308 -215 562 -215 565 0 3 178 5
395 5 l395 0 0 -1695 c0 -932 -4 -1695 -8 -1695 -10 0 -127 80 -215 147 -235
178 -520 448 -692 656 -505 609 -809 1340 -921 2207 -8 68 -20 133 -25 143
-16 28 -70 57 -110 57 -49 0 -101 -37 -116 -81 -9 -29 -8 -66 8 -191 90 -728
326 -1381 704 -1948 318 -476 709 -862 1230 -1214 96 -65 102 -68 151 -64 37
3 61 12 90 35 21 16 90 65 151 108 436 302 835 708 1127 1150 135 204 184 288
288 499 276 564 425 1171 458 1878 15 316 -10 740 -46 796 -8 13 -29 31 -46
41 -16 11 -202 83 -411 161 -210 78 -652 243 -982 366 -429 161 -611 224 -640
224 -27 -1 -199 -60 -520 -180z m1548 -1248 c28 -31 489 -1260 494 -1317 3
-27 -2 -84 -11 -125 -58 -274 -277 -454 -550 -452 -299 2 -523 220 -552 536
-4 51 -3 84 4 99 7 12 101 258 211 547 110 289 202 533 206 543 7 16 -17 17
-409 17 l-416 0 0 85 0 85 503 0 c476 0 505 -1 520 -18z m-1774 -753 c88 -233
162 -432 166 -441 7 -17 -13 -18 -335 -18 -270 0 -341 3 -337 13 8 19 315 819
327 851 6 16 13 27 15 24 3 -2 77 -195 164 -429z m188 -674 c-9 -55 -51 -138
-92 -184 -21 -22 -67 -55 -103 -73 -62 -31 -74 -33 -167 -33 -87 0 -107 3
-157 27 -100 46 -188 159 -205 261 l-6 37 368 0 368 0 -6 -35z"/>
<path d="M4511 4439 c-5 -13 -81 -212 -170 -443 -88 -230 -161 -420 -161 -422
0 -2 151 -4 335 -4 274 0 335 2 335 13 0 13 -318 868 -326 876 -2 2 -8 -7 -13
-20z"/>
<path d="M4173 3393 c-13 -2 -23 -6 -23 -8 0 -1 9 -31 20 -66 82 -264 422
-347 618 -152 45 46 86 122 97 184 l7 36 -228 6 c-240 7 -454 7 -491 0z"/>
</g>
</svg>
