<svg width="65" height="81" viewBox="0 0 65 81" fill="none" xmlns="http://www.w3.org/2000/svg">
<path d="M32.2 80.8C31.9 80.8 31.6 80.7 31.4 80.6L30.9 80.3C22.4 74.7 15.5 67.8 10.4 59.6C6.29998 53 3.39998 45.7 1.69998 37.7C-1.20002 24.2 0.499979 13.8 0.599979 13.3C0.699979 12.8 0.999979 12.3 1.49998 12.2L31.7 0.899997C32 0.799997 32.4 0.799997 32.7 0.899997L62.9 12.1C63.4 12.3 63.8 12.7 63.8 13.2C63.9 13.6 65.6 24.1 62.7 37.6C61 45.5 58.1 52.9 54 59.5C48.9 67.7 42 74.7 33.5 80.2L33 80.6C32.8 80.7 32.5 80.8 32.2 80.8ZM3.39998 14.6C3.09998 17.3 2.29998 26.3 4.59998 37.1C6.19998 44.7 8.99998 51.7 12.9 58C17.7 65.7 24.2 72.3 32.2 77.6C40.2 72.3 46.7 65.8 51.5 58C55.4 51.8 58.2 44.7 59.8 37.1C62.1 26.2 61.3 17.3 61 14.6L32.2 3.9L3.39998 14.6Z" fill="#CF3535"/>
<path d="M33.2001 70.3C32.9001 70.3 32.6001 70.2 32.4001 70.1L32.0001 69.8C14.9001 58.7 10.0001 42.7 8.90006 31.2C8.80006 30.4 9.40006 29.7 10.2001 29.6C11.0001 29.5 11.8001 30.1 11.8001 30.9C12.9001 41.7 17.5001 56.6 33.2001 67C44.0001 59.9 51.0001 49.7 53.7001 36.8C55.4001 28.9 54.9001 22.5 54.6001 20.2L33.2001 12.2L10.9001 20.5C10.1001 20.8 9.30006 20.4 9.00006 19.6C8.70006 18.8 9.10006 18 9.90006 17.7L32.7001 9.2C33.0001 9.1 33.4001 9.1 33.7001 9.2L56.5001 17.7C57.0001 17.9 57.4001 18.3 57.5001 18.8C57.6001 19.1 58.8001 27.1 56.7001 37.3C54.7001 46.8 49.2001 60.1 34.5001 69.7L34.0001 70.1C33.7001 70.2 33.5001 70.3 33.2001 70.3Z" fill="#CF3535"/>
<path d="M56 20.2L33.5999 11.9L33.2 11.8V69.9C33.6 69.6 33.5999 69.6 33.5999 69.6C61.1999 51.7 56 20.2 56 20.2Z" fill="#CF3535"/>
<path d="M44.4 47.8C41.2 47.8 37.9 45.4 37.9 40.8C37.9 40.7 37.9 40.7 37.9 40.6C37.9 40.5 37.9 40.5 38 40.4L42.9 27.5H33.5C32.9 27.5 32.5 27 32.5 26.5C32.5 26 33 25.5 33.5 25.5H44.4C44.5 25.5 44.5 25.5 44.6 25.5C44.7 25.5 44.8 25.6 44.9 25.6C45 25.6 45.1 25.7 45.1 25.8C45.2 25.9 45.2 25.9 45.3 26C45.3 26.1 45.4 26.1 45.4 26.2L50.8 40.5C50.8 40.6 50.8 40.6 50.9 40.7C50.9 40.8 50.9 40.8 50.9 40.9C50.9 45.4 47.6 47.8 44.4 47.8ZM40 41.8C40.4 44.5 42.4 45.7 44.3 45.7C46.3 45.7 48.2 44.5 48.6 41.8H40ZM40.4 39.7H48.3L44.4 29.3L40.4 39.7Z" fill="#3F3F3F"/>
<path d="M22.6001 47.8C19.4001 47.8 16.1001 45.4 16.1001 40.8C16.1001 40.7 16.1001 40.7 16.1001 40.6C16.1001 40.5 16.1001 40.5 16.2001 40.4L21.6001 26.1C21.6001 26 21.6001 26 21.7001 25.9C21.7001 25.8 21.8001 25.8 21.8001 25.7C21.9001 25.6 21.9001 25.6 22.0001 25.5C22.1001 25.4 22.2001 25.4 22.3001 25.4C22.4001 25.4 22.4001 25.4 22.5001 25.4H33.4001C34.0001 25.4 34.4001 25.9 34.4001 26.4C34.4001 26.9 33.9001 27.4 33.4001 27.4H24.0001L29.0001 40.4C29.0001 40.5 29.0001 40.5 29.1001 40.6C29.1001 40.7 29.1001 40.7 29.1001 40.8C29.1001 45.4 25.8001 47.8 22.6001 47.8ZM18.2001 41.8C18.6001 44.5 20.6001 45.7 22.5001 45.7C24.4001 45.7 26.4001 44.5 26.8001 41.8H18.2001ZM18.6001 39.7H26.5001L22.6001 29.3L18.6001 39.7Z" fill="#CF3535"/>
<path d="M34.5999 25.4H33.2V27.5H34.5999V25.4Z" fill="#3F3F3F"/>
</svg>
