<svg width="191" height="80" xmlns="http://www.w3.org/2000/svg" xml:space="preserve">
 <g>
  <title>Layer 1</title>
  <g id="svg_1">
   <g id="svg_2">
    <path class="st0" d="m32.18558,79.975c-0.3,0 -0.6,-0.1 -0.8,-0.2l-0.5,-0.3c-8.5,-5.6 -15.4,-12.5 -20.5,-20.7c-4.1,-6.6 -7,-13.9 -8.7,-21.9c-2.9,-13.5 -1.2,-23.9 -1.1,-24.4c0.1,-0.5 0.4,-1 0.9,-1.1l30.2,-11.3c0.3,-0.1 0.7,-0.1 1,0l30.2,11.2c0.5,0.2 0.9,0.6 0.9,1.1c0.1,0.4 1.8,10.9 -1.1,24.4c-1.7,7.9 -4.6,15.3 -8.7,21.9c-5.1,8.2 -12,15.2 -20.5,20.7l-0.5,0.4c-0.2,0.1 -0.5,0.2 -0.8,0.2zm-28.8,-66.2c-0.3,2.7 -1.1,11.7 1.2,22.5c1.6,7.6 4.4,14.6 8.3,20.9c4.8,7.7 11.3,14.3 19.3,19.6c8,-5.3 14.5,-11.8 19.3,-19.6c3.9,-6.2 6.7,-13.3 8.3,-20.9c2.3,-10.9 1.5,-19.8 1.2,-22.5l-28.8,-10.7l0,0l-28.8,10.7z" fill="#295284" id="svg_3"/>
   </g>
   <g id="svg_4">
    <path class="st0" d="m33.18558,69.475c-0.3,0 -0.6,-0.1 -0.8,-0.2l-0.4,-0.3c-17.1,-11.1 -22,-27.1 -23.1,-38.6c-0.1,-0.8 0.5,-1.5 1.3,-1.6c0.8,-0.1 1.6,0.5 1.6,1.3c1.1,10.8 5.7,25.7 21.4,36.1c10.8,-7.1 17.8,-17.3 20.5,-30.2c1.7,-7.9 1.2,-14.3 0.9,-16.6l-21.4,-8l-22.3,8.3c-0.8,0.3 -1.6,-0.1 -1.9,-0.9c-0.3,-0.8 0.1,-1.6 0.9,-1.9l22.8,-8.5c0.3,-0.1 0.7,-0.1 1,0l22.8,8.5c0.5,0.2 0.9,0.6 1,1.1c0.1,0.3 1.3,8.3 -0.8,18.5c-2,9.5 -7.5,22.8 -22.2,32.4l-0.5,0.4c-0.3,0.1 -0.5,0.2 -0.8,0.2z" fill="#295284" id="svg_5"/>
   </g>
   <g id="svg_6">
    <path class="st0" d="m55.98558,19.375l-22.4,-8.3l-0.4,-0.1l0,0l0,58.1l0,0c0.4,-0.3 0.4,-0.3 0.4,-0.3c27.6,-17.9 22.4,-49.4 22.4,-49.4z" fill="#295284" id="svg_7" mask="url(#main)"/>
    <mask id="main">
      <path class="st0" d="m55.98558,19.375l-22.4,-8.3l-0.4,-0.1l0,0l0,58.1l0,0c0.4,-0.3 0.4,-0.3 0.4,-0.3c27.6,-17.9 22.4,-49.4 22.4,-49.4z" fill="#fff" id="svg_7"/>
      <path class="st1" d="m44.38558,46.975c-3.2,0 -6.5,-2.4 -6.5,-7c0,-0.1 0,-0.1 0,-0.2c0,-0.1 0,-0.1 0.1,-0.2l4.9,-12.9l-9.4,0c-0.6,0 -1,-0.5 -1,-1s0.5,-1 1,-1l10.9,0c0,0 0,0 0,0l0,0l0,0c0.1,0 0.1,0 0.2,0c0.1,0 0.2,0.1 0.3,0.1c0.1,0 0.2,0.1 0.2,0.2c0.1,0.1 0.1,0.1 0.2,0.2c0,0.1 0.1,0.1 0.1,0.2l5.4,14.3c0,0.1 0,0.1 0.1,0.2c0,0.1 0,0.1 0,0.2c0,4.5 -3.3,6.9 -6.5,6.9zm-4.4,-6c0.4,2.7 2.4,3.9 4.3,3.9c2,0 3.9,-1.2 4.3,-3.9l-8.6,0zm0.4,-2.1l7.9,0l-3.9,-10.4l-4,10.4z" fill="#000" id="svg_9" />
    </mask>
   </g>
   <g id="svg_8">
   </g>
   <g id="svg_10">
    <path class="st0" d="m22.58558,46.975c-3.2,0 -6.5,-2.4 -6.5,-7c0,-0.1 0,-0.1 0,-0.2c0,-0.1 0,-0.1 0.1,-0.2l5.4,-14.3c0,-0.1 0,-0.1 0.1,-0.2c0,-0.1 0.1,-0.1 0.1,-0.2c0.1,-0.1 0.1,-0.1 0.2,-0.2c0.1,-0.1 0.2,-0.1 0.3,-0.1c0.1,0 0.1,0 0.2,0l0,0l0,0c0,0 0,0 0,0l10.9,0c0.6,0 1,0.5 1,1s-0.5,1 -1,1l-9.4,0l5,13c0,0.1 0,0.1 0.1,0.2c0,0.1 0,0.1 0,0.2c0,4.6 -3.3,7 -6.5,7zm-4.4,-6c0.4,2.7 2.4,3.9 4.3,3.9s3.9,-1.2 4.3,-3.9l-8.6,0zm0.4,-2.1l7.9,0l-3.9,-10.4l-4,10.4z" fill="#295284" id="svg_11"/>
   </g>
   <g id="svg_12">
    <rect x="33.18558" y="24.575" class="st1" width="1.4" height="2.1" fill="#295284" id="svg_13"/>
   </g>
  </g>
  <text stroke="#000" fill="#295284" stroke-width="0" x="68.25077" y="42.24844" id="svg_41" font-size="30" font-family="'Cuprum'" text-anchor="start" xml:space="preserve">Правовед</text>
  <text fill="#295284" stroke="#000" stroke-width="0" x="68.60728" y="58.38304" id="svg_42" font-size="11" font-family="'Cuprum'" text-anchor="start" xml:space="preserve">центр юридических услуг</text>
 </g>

</svg>