<svg xmlns="http://www.w3.org/2000/svg" width="59" height="66" fill="none"><path d="m50.787 39.344.812.95.037-.031.035-.035-.884-.884zm4.721 6.295-.929-.836-.049.054-.042.06 1.02.722zM3 39.545h7.443v-2.5H3v2.5zm7.443 23.205H3v2.5h7.443v-2.5zM3.25 63V39.295H.75V63h2.5zm6.943-23.705v2.148h2.5v-2.148h-2.5zm1.976 3.165a61.888 61.888 0 0 1 5.006-3.21c.94-.533 1.843-.999 2.622-1.328.824-.347 1.357-.475 1.613-.475v-2.5c-.794 0-1.725.309-2.585.672-.903.381-1.901.9-2.885 1.458a64.38 64.38 0 0 0-5.224 3.349l1.453 2.034zm9.24-5.013H36.624v-2.5H21.41v2.5zm15.214 0c.673 0 1.106.257 1.394.608.313.381.503.94.503 1.552 0 .611-.19 1.17-.503 1.55-.288.352-.72.61-1.394.61v2.5c1.425 0 2.566-.596 3.327-1.523.736-.898 1.07-2.044 1.07-3.137s-.334-2.24-1.07-3.138c-.761-.927-1.902-1.522-3.327-1.522v2.5zm0 4.32c-2.567 0-4.662.405-6.216 1.085-1.508.66-2.722 1.684-3.064 3.047-.376 1.497.42 2.812 1.69 3.669 1.25.842 3.107 1.385 5.482 1.556l.18-2.493c-2.144-.154-3.516-.631-4.264-1.136-.728-.491-.698-.85-.664-.987.069-.272.442-.84 1.642-1.366 1.154-.505 2.887-.876 5.214-.876v-2.5zm15.048-1.539c.512-.512 1.05-.644 1.552-.578.54.07 1.12.383 1.58.91.882 1.011 1.203 2.658-.224 4.243l1.858 1.672c2.351-2.611 1.884-5.686.249-7.56-.8-.916-1.911-1.585-3.142-1.745-1.268-.164-2.58.228-3.641 1.29l1.768 1.768zm2.817 4.689c-1.405 1.984-4.187 5.025-7.883 7.56-3.697 2.535-8.217 4.503-13.13 4.503v2.5c5.58 0 10.59-2.23 14.543-4.94 3.954-2.712 6.943-5.966 8.51-8.178l-2.04-1.445zm-44.295-3.474V58.23h2.5V41.443h-2.5zm0 16.787V63h2.5v-4.77h-2.5zm23.282-1.25H11.443v2.5H33.475v-2.5zm8.795-8.72 9.329-7.965-1.624-1.901-9.329 7.966 1.624 1.9zm-7.755 2.864c2.95.212 5.67-1.084 7.755-2.863l-1.624-1.901c-1.761 1.504-3.858 2.421-5.952 2.27l-.179 2.494zM3 62.75a.25.25 0 0 1 .25.25H.75A2.25 2.25 0 0 0 3 65.25v-2.5zm7.443 2.5a2.25 2.25 0 0 0 2.25-2.25h-2.5a.25.25 0 0 1 .25-.25v2.5zm0-25.705a.25.25 0 0 1-.25-.25h2.5a2.25 2.25 0 0 0-2.25-2.25v2.5zM3 37.045a2.25 2.25 0 0 0-2.25 2.25h2.5a.25.25 0 0 1-.25.25v-2.5z" fill="#CF3535"/><path d="M32.426 3.672h-11.54m0 0 5.77 15.213m-5.77-15.213-5.771 15.213m11.54 0a5.792 5.792 0 0 1-11.54 0m11.54 0h-11.54M38.721 4.197h11.541m0 0-5.77 15.213m5.77-15.213 5.77 15.213m-11.54 0a5.792 5.792 0 0 0 11.54 0m-11.54 0h11.54" stroke="#CF3535" stroke-width="2.5" stroke-linecap="round"/><circle cx="34.524" cy="4.197" r="2.947" stroke="#CF3535" stroke-width="2.5"/><path d="M34.524 6.82v18.885m0 0 3.148 3.148 1.44 1.44c.63.63.184 1.707-.707 1.707h-7.378c-.87 0-1.325-1.034-.737-1.676l4.234-4.62z" stroke="#CF3535" stroke-width="2.5" stroke-linecap="round"/></svg>