<svg xmlns="http://www.w3.org/2000/svg" width="65" height="68" fill="none"><path d="M21.65 24.456C26.14 22.772 33.887 14.8 35.683 9.86M21.65 24.456l6.176 6.176m-6.176-6.176-1.538-1.538a1 1 0 0 0-1.415 0l-4.2 4.2a1 1 0 0 0 0 1.414l9.253 9.252a1 1 0 0 0 1.414 0l4.2-4.2a1 1 0 0 0 0-1.414l-1.538-1.538m7.86-20.772 6.175 6.175M35.684 9.86 34.146 8.32a1 1 0 0 1 0-1.414l4.2-4.2a1 1 0 0 1 1.414 0l9.252 9.253a1 1 0 0 1 0 1.414l-4.2 4.2a1 1 0 0 1-1.414 0l-1.538-1.539m0 0c-1.653.601-3.478 1.973-5.273 3.687m-8.762 10.91c1.015-1.596 2.608-3.876 4.467-6.176m0 0 9.568 9.567m-9.568-9.567c1.334-1.65 2.804-3.31 4.295-4.734m5.273 14.301 4.49-4.49a.033.033 0 0 0 0-.048v0m-4.49 4.538-.954.954a1 1 0 0 0 0 1.414L51.404 46.89M36.587 19.722l9.764 9.763m5.053 17.404c8.42 8.444 16.71 2.114 7.298-7.299m-7.298 7.299 7.298-7.299m0 0L48.18 29.07a1 1 0 0 0-1.414 0l-.416.415M35.684 59.263h2.369a1 1 0 0 1 1 1V65a1 1 0 0 1-1 1H3a1 1 0 0 1-1-1v-4.737a1 1 0 0 1 1-1h1.807m30.877 0V54.65a1 1 0 0 0-1-1H5.807a1 1 0 0 0-1 1v4.614m30.877 0H4.807" stroke="#CF3535" stroke-width="3" stroke-linecap="round"/></svg>