<svg xmlns="http://www.w3.org/2000/svg" width="64" height="64" fill="none"><path d="M1.5 33.75a1.25 1.25 0 1 0 0 2.5v-2.5zm0 5a1.25 1.25 0 1 0 0 2.5v-2.5zM2.75 62.5a1.25 1.25 0 1 0 2.5 0h-2.5zM6.5 45.25a1.25 1.25 0 1 0 0-2.5v2.5zM4 42.75a1.25 1.25 0 1 0 0 2.5v-2.5zM15.75 49a1.25 1.25 0 1 0 1.5 2l-1.5-2zm5.5-1a1.25 1.25 0 1 0-1.5-2l1.5 2zm-4.75 3.75a1.25 1.25 0 1 0 0 2.5v-2.5zm4 2.5a1.25 1.25 0 1 0 0-2.5v2.5zm-3.116.866a1.25 1.25 0 0 0-1.768 1.768l1.768-1.768zm1.732 5.268a1.25 1.25 0 0 0 1.768-1.768l-1.768 1.768zm27.268-15.768a1.25 1.25 0 0 0-1.768 1.768l1.768-1.768zm8.732 12.268a1.25 1.25 0 0 0 1.768-1.768l-1.768 1.768zm1.768-10.5a1.25 1.25 0 0 0-1.768-1.768l1.768 1.768zm-12.268 8.732a1.25 1.25 0 0 0 1.768 1.768l-1.768-1.768zm1.768-48.232a1.25 1.25 0 0 0-1.768-1.768l1.768 1.768zm-31.5 1.5a1.25 1.25 0 0 0-1.768-1.768l1.768 1.768zm-7.5 1.732a1.25 1.25 0 0 0-1.768 1.768l1.768-1.768zm35.909-1.909-.884-.884.884.884zM9.608 53.953l-.92.846.92-.846zm-.94-2.154-.643-1.072.643 1.072zm.012 1.378.704-1.033-.704 1.033zm.835-1.886L8.87 50.22l.643 1.072zM11.5 46.5l.884-.884-.884.884zm-10-10.25H12v-2.5H1.5v2.5zm10.5 0c1.43 0 1.882.816 1.901 1.3a.926.926 0 0 1-.32.741c-.24.216-.716.459-1.581.459v2.5c1.335 0 2.458-.382 3.257-1.104a3.425 3.425 0 0 0 1.142-2.696c-.08-2.016-1.828-3.7-4.399-3.7v2.5zm0 2.5h-2v2.5h2v-2.5zm-2 0H1.5v2.5H10v-2.5zM8.75 40v4.586h2.5V40h-2.5zm.659 6.177 1.207 1.207 1.768-1.768-1.207-1.207-1.768 1.768zm-.659 2.702v1.555h2.5v-1.555h-2.5zm.121 1.34-.846.508 1.286 2.144.847-.508L8.87 50.22zm-.894 3.99c.28.191.53.394.71.59l1.84-1.693a6.662 6.662 0 0 0-1.143-.962L7.977 54.21zm-.802 2.541H4.5v2.5h2.675v-2.5zM2.75 58.5v4h2.5v-4h-2.5zM6.5 42.75H4v2.5h2.5v-2.5zM17.25 51l4-3-1.5-2-4 3 1.5 2zm-.75 3.25h4v-2.5h-4v2.5zm-.884 2.634 3.5 3.5 1.768-1.768-3.5-3.5-1.768 1.768zm29-10.5 10.5 10.5 1.768-1.768-10.5-10.5-1.768 1.768zm10.5-1.768-10.5 10.5 1.768 1.768 10.5-10.5-1.768-1.768zM60.75 20v5h2.5v-5h-2.5zm.25 4.75H41v2.5h20v-2.5zM41.25 25v-5h-2.5v5h2.5zm9-6v-8.5h-2.5V19h2.5zM50 10.75h8v-2.5h-8v2.5zm-1 9.5h10v-2.5H49v2.5zm10 0h2v-2.5h-2v2.5zm-1.25-9.75V19h2.5v-8.5h-2.5zM41 20.25h2v-2.5h-2v2.5zm2 0h6v-2.5h-6v2.5zM44.25 19V8.914h-2.5V19h2.5zm-.073-9.909 2.207-2.207-1.768-1.768-2.207 2.207 1.768 1.768zm-31.06-2.475L8.322 11.41l1.768 1.768 4.793-4.793-1.768-1.768zm-4.44 4.793-1.293-1.293-1.768 1.768 1.293 1.293 1.768-1.768zm-.354 0a.25.25 0 0 1 .354 0l-1.768 1.768a2.25 2.25 0 0 0 3.182 0l-1.768-1.768zM41.25 20a.25.25 0 0 1-.25.25v-2.5A2.25 2.25 0 0 0 38.75 20h2.5zm3-11.086a.25.25 0 0 1-.073.177l-1.768-1.768a2.25 2.25 0 0 0-.659 1.591h2.5zM4.5 56.75a1.75 1.75 0 0 0-1.75 1.75h2.5a.75.75 0 0 1-.75.75v-2.5zm4.25-1.575c0 .87-.705 1.575-1.575 1.575v2.5a4.075 4.075 0 0 0 4.075-4.075h-2.5zm-.062-.376c-.005-.005.01.007.028.068.019.066.034.167.034.308h2.5c0-.577-.113-1.406-.723-2.069L8.688 54.8zM58 10.75a.25.25 0 0 1-.25-.25h2.5A2.25 2.25 0 0 0 58 8.25v2.5zM8.025 50.727c-.693.416-.978 1.137-.965 1.775.012.63.31 1.294.917 1.708l1.407-2.066c.13.088.173.213.175.309.002.105-.05.3-.248.418l-1.286-2.144zM50.25 10.5a.25.25 0 0 1-.25.25v-2.5a2.25 2.25 0 0 0-2.25 2.25h2.5zM8.75 50.434a.25.25 0 0 1 .121-.215l1.287 2.144a2.25 2.25 0 0 0 1.092-1.93h-2.5zm2.129-3.684a2.129 2.129 0 0 0-2.129 2.129h2.5a.371.371 0 0 1-.371.371v-2.5zM8.75 44.586c0 .596.237 1.169.659 1.59l1.768-1.767a.25.25 0 0 1 .073.177h-2.5zM60.75 25a.25.25 0 0 1 .25-.25v2.5A2.25 2.25 0 0 0 63.25 25h-2.5zM41 24.75a.25.25 0 0 1 .25.25h-2.5A2.25 2.25 0 0 0 41 27.25v-2.5zM10.616 47.384a.371.371 0 0 1 .263-.634v2.5c1.896 0 2.846-2.293 1.505-3.634l-1.768 1.768zM63.25 20A2.25 2.25 0 0 0 61 17.75v2.5a.25.25 0 0 1-.25-.25h2.5zM9 21h2v2H9zM9 25h2v2H9zM9 29h2v2H9zM22 9h2v2h-2zM26 9h2v2h-2zM30 9h2v2h-2zM34 9h2v2h-2zM50 30h2v2h-2zM50 34h2v2h-2zM34 52h2v2h-2zM30 52h2v2h-2zM26 52h2v2h-2z" fill="#CF3535"/><circle cx="10" cy="10" r="8.75" stroke="#CF3535" stroke-width="2.5"/><circle cx="50.5" cy="50.5" r="12.25" stroke="#CF3535" stroke-width="2.5"/><circle cx="54.5" cy="4.5" r="3.25" stroke="#CF3535" stroke-width="2.5"/></svg>