<svg xmlns="http://www.w3.org/2000/svg" width="64" height="68" fill="none"><path d="M39.393 35.798c0 1.354-.51 4.366-2.49 6.154-.234.21-.386.503-.386.818v5.962c0 .434.28.817.69.958 6.602 2.25 18.374 7.999 19.376 15.313.075.547-.379.997-.931.997H3c-.552 0-1.005-.45-.95-1 .912-8.976 13.954-13.71 19.367-15.33.428-.128.718-.517.718-.964v-6.074c0-.234-.083-.459-.22-.648-1.037-1.429-2.678-4.748-3.206-5.835a1.134 1.134 0 0 0-.524-.514c-.907-.45-3.241-1.834-3.241-4.152 0-2.066 1.112-3.018 2.272-3.392.638-.205 1.13-.847.942-1.49-2.13-7.343-4.59-18.848 8.291-18.848M56.652 9.19h-2.877m-5.033 0h-8.63m0 7.191h2.877m5.753 0h7.91m-17.259 8.191v3.777c0 .89 1.077 1.337 1.707.707l5.191-5.191a1 1 0 0 1 .708-.293h14.405a1 1 0 0 0 1-1V3a1 1 0 0 0-1-1H33.203a1 1 0 0 0-1 1v19.573a1 1 0 0 0 1 1h5.191a1 1 0 0 1 1 1z" stroke="#CF3535" stroke-width="3" stroke-linecap="round"/></svg>